<?xml version="1.0" encoding="UTF-8" standalone="no"?>
<svg
   xmlns:osb="http://www.openswatchbook.org/uri/2009/osb"
   xmlns:dc="http://purl.org/dc/elements/1.1/"
   xmlns:cc="http://creativecommons.org/ns#"
   xmlns:rdf="http://www.w3.org/1999/02/22-rdf-syntax-ns#"
   xmlns:svg="http://www.w3.org/2000/svg"
   xmlns="http://www.w3.org/2000/svg"
   xmlns:sodipodi="http://sodipodi.sourceforge.net/DTD/sodipodi-0.dtd"
   xmlns:inkscape="http://www.inkscape.org/namespaces/inkscape"
   width="215"
   height="215"
   viewBox="0 0 56.885415 56.885415"
   version="1.1"
   id="svg204"
   sodipodi:docname="QGCLogoFull.svg"
   inkscape:version="0.92.5 (2060ec1f9f, 2020-04-08)">
  <sodipodi:namedview
     pagecolor="#ffffff"
     bordercolor="#666666"
     borderopacity="1"
     objecttolerance="10"
     gridtolerance="10"
     guidetolerance="10"
     inkscape:pageopacity="0"
     inkscape:pageshadow="2"
     inkscape:window-width="1920"
     inkscape:window-height="1043"
     id="namedview946"
     showgrid="false"
     inkscape:zoom="3.584593"
     inkscape:cx="106.38411"
     inkscape:cy="107.5"
     inkscape:window-x="1920"
     inkscape:window-y="0"
     inkscape:window-maximized="1"
     inkscape:current-layer="svg204" />
  <defs
     id="defs198">
    <linearGradient
       id="linearGradient4921"
       osb:paint="solid">
      <stop
         style="stop-color:#000000;stop-opacity:1;"
         offset="0"
         id="stop4919" />
    </linearGradient>
  </defs>
  <metadata
     id="metadata201">
    <rdf:RDF>
      <cc:Work
         rdf:about="">
        <dc:format>image/svg+xml</dc:format>
        <dc:type
           rdf:resource="http://purl.org/dc/dcmitype/StillImage" />
        <dc:title></dc:title>
      </cc:Work>
    </rdf:RDF>
  </metadata>
  <path
     style="opacity:0.98999999;fill:#000000;fill-opacity:1;stroke:#ffffff;stroke-width:2.39756823;stroke-miterlimit:4;stroke-dasharray:none;stroke-opacity:1"
     d="m 16.532685,1.1741616 h 23.842788 c 8.500818,0 15.344437,6.8436187 15.344437,15.3444364 v 23.856079 c 0,8.500818 -6.843619,15.344437 -15.344437,15.344437 H 16.532685 c -8.5008181,0 -15.3444368,-6.843619 -15.3444368,-15.344437 V 16.518598 c 0,-8.5008177 6.8436187,-15.3444364 15.3444368,-15.3444364 z"
     id="rect4911" />
  <path
     style="font-size:2.54416537px;line-height:1.25;font-family:sans-serif;text-align:center;letter-spacing:0px;text-anchor:middle;fill:#ffffff;stroke-width:0.76592666"
     d="M 122.89844 124.13672 L 121.74805 125.90234 L 122.40039 125.90234 L 123.24609 124.75195 L 124.0918 125.90234 L 124.74414 125.90234 L 123.59375 124.13672 L 122.89844 124.13672 z M 159.46875 124.13672 L 158.1543 125.90234 L 158.87305 125.90234 L 160.4043 124.13672 L 159.46875 124.13672 z M 45.109375 124.52148 L 45.109375 125.61523 L 45.972656 125.61523 L 45.972656 124.52148 L 45.109375 124.52148 z M 89.261719 124.52148 L 89.261719 127.36719 C 89.080175 127.05417 88.850847 126.82212 88.572266 126.67188 C 88.296816 126.5185 87.964304 126.44336 87.576172 126.44336 C 86.94076 126.44336 86.424093 126.69604 86.023438 127.20312 C 85.625914 127.71021 85.425781 128.37677 85.425781 129.20312 C 85.425781 130.02948 85.625914 130.69604 86.023438 131.20312 C 86.424093 131.71021 86.94076 131.96484 87.576172 131.96484 C 87.964304 131.96484 88.296816 131.88853 88.572266 131.73828 C 88.850847 131.58491 89.080175 131.35208 89.261719 131.03906 L 89.261719 131.82812 L 90.126953 131.82812 L 90.126953 124.52148 L 89.261719 124.52148 z M 107.24414 124.52148 L 107.24414 125.61523 L 108.10938 125.61523 L 108.10938 124.52148 L 107.24414 124.52148 z M 116.01953 124.52148 L 116.01953 125.61523 L 116.88477 125.61523 L 116.88477 124.52148 L 116.01953 124.52148 z M 118.69141 124.52148 L 118.69141 131.82812 L 119.55469 131.82812 L 119.55469 124.52148 L 118.69141 124.52148 z M 138.63672 124.52148 L 138.63672 125.61523 L 139.5 125.61523 L 139.5 124.52148 L 138.63672 124.52148 z M 41.193359 124.69141 C 40.426483 124.69141 39.822982 124.86973 39.384766 125.22656 C 38.949682 125.5834 38.732422 126.07164 38.732422 126.69141 C 38.732422 127.22666 38.890891 127.64482 39.207031 127.94531 C 39.523171 128.24581 40.034781 128.46657 40.742188 128.60742 L 41.320312 128.71875 C 41.802351 128.81579 42.147708 128.96218 42.357422 129.15625 C 42.57026 129.35032 42.677734 129.62053 42.677734 129.96484 C 42.677734 130.35925 42.530557 130.66216 42.236328 130.875 C 41.942097 131.08784 41.52393 131.19336 40.982422 131.19336 C 40.625589 131.19336 40.261931 131.13885 39.892578 131.0293 C 39.523228 130.91975 39.146722 130.757 38.761719 130.54102 L 38.761719 131.51758 C 39.162371 131.6647 39.549392 131.77645 39.921875 131.85156 C 40.297487 131.92667 40.65063 131.96484 40.982422 131.96484 C 41.861983 131.96484 42.528556 131.78808 42.982422 131.4375 C 43.439417 131.08692 43.667969 130.57182 43.667969 129.89258 C 43.667969 129.32289 43.49821 128.86931 43.160156 128.53125 C 42.825235 128.19007 42.305058 127.95296 41.597656 127.81836 L 41.023438 127.70117 C 40.503851 127.60413 40.150708 127.47681 39.962891 127.32031 C 39.778223 127.16067 39.685547 126.92707 39.685547 126.61719 C 39.685547 126.24781 39.824937 125.96203 40.103516 125.76172 C 40.385226 125.5614 40.784314 125.46094 41.300781 125.46094 C 41.598139 125.46094 41.907288 125.50338 42.226562 125.58789 C 42.545832 125.67239 42.884178 125.80049 43.244141 125.97266 L 43.244141 125.04883 C 42.887308 124.92987 42.538446 124.84071 42.197266 124.78125 C 41.856083 124.72179 41.52202 124.69141 41.193359 124.69141 z M 100.04688 124.81836 L 102.72266 131.82812 L 103.79883 131.82812 L 106.4707 124.81836 L 105.48438 124.81836 L 103.25781 130.7207 L 101.03711 124.81836 L 100.04688 124.81836 z M 152.10156 124.81836 L 149.42578 131.82812 L 150.42578 131.82812 L 151.06445 130.0293 L 154.22461 130.0293 L 154.86328 131.82812 L 155.84961 131.82812 L 153.17773 124.81836 L 152.10156 124.81836 z M 52.775391 125.07617 L 52.775391 126.56836 L 52.142578 126.56836 L 52.142578 127.24023 L 52.775391 127.24023 L 52.775391 130.0957 C 52.775391 130.75304 52.902712 131.20662 53.15625 131.45703 C 53.409788 131.70431 53.870398 131.82812 54.537109 131.82812 L 55.423828 131.82812 L 55.423828 131.10547 L 54.537109 131.10547 C 54.17716 131.10547 53.937314 131.04395 53.818359 130.92188 C 53.702555 130.7998 53.644531 130.52453 53.644531 130.0957 L 53.644531 127.24023 L 55.423828 127.24023 L 55.423828 126.56836 L 53.644531 126.56836 L 53.644531 125.07617 L 52.775391 125.07617 z M 152.63672 125.75195 L 153.92969 129.24023 L 151.35156 129.24023 L 152.63672 125.75195 z M 49.451172 126.44336 C 48.806369 126.44336 48.309556 126.57651 47.958984 126.8457 C 47.608413 127.1149 47.433594 127.49763 47.433594 127.99219 C 47.433594 128.39911 47.551179 128.72032 47.789062 128.95508 C 48.026954 129.18672 48.41397 129.35802 48.949219 129.4707 L 49.25 129.54102 C 49.785257 129.65682 50.130612 129.77714 50.287109 129.90234 C 50.446757 130.02755 50.527344 130.2086 50.527344 130.44336 C 50.527344 130.69691 50.418331 130.89431 50.199219 131.03516 C 49.980109 131.17288 49.66668 131.24023 49.259766 131.24023 C 48.956146 131.24023 48.649722 131.20053 48.339844 131.11914 C 48.02996 131.03463 47.715754 130.91004 47.396484 130.74414 L 47.396484 131.63477 C 47.734535 131.74432 48.0538 131.82569 48.357422 131.87891 C 48.664171 131.93525 48.958526 131.96484 49.240234 131.96484 C 49.916339 131.96484 50.447028 131.82195 50.832031 131.53711 C 51.220166 131.25226 51.414062 130.86525 51.414062 130.37695 C 51.414063 129.94812 51.28519 129.61484 51.025391 129.37695 C 50.76872 129.13592 50.332248 128.94981 49.71875 128.81836 L 49.423828 128.75195 C 48.960569 128.64865 48.65142 128.54041 48.498047 128.42773 C 48.344674 128.31191 48.269531 128.15539 48.269531 127.95508 C 48.269531 127.69216 48.375053 127.49476 48.587891 127.36328 C 48.80387 127.2318 49.125865 127.16602 49.554688 127.16602 C 49.836396 127.16602 50.110115 127.19718 50.373047 127.25977 C 50.635966 127.32238 50.888655 127.41581 51.132812 127.54102 L 51.132812 126.72461 C 50.894924 126.6307 50.635224 126.56061 50.353516 126.51367 C 50.071805 126.46673 49.770444 126.44336 49.451172 126.44336 z M 58.761719 126.44336 C 57.972931 126.44336 57.345292 126.69604 56.878906 127.20312 C 56.41565 127.70708 56.185547 128.38921 56.185547 129.25 C 56.185547 130.08262 56.429671 130.74412 56.917969 131.23242 C 57.409396 131.72073 58.073241 131.96484 58.912109 131.96484 C 59.247031 131.96484 59.578764 131.93019 59.904297 131.86133 C 60.229828 131.79247 60.547543 131.692 60.857422 131.56055 L 60.857422 130.74414 C 60.550673 130.90691 60.240745 131.02799 59.927734 131.10938 C 59.617853 131.19076 59.296636 131.23242 58.964844 131.23242 C 58.392034 131.23242 57.943495 131.07746 57.621094 130.76758 C 57.301832 130.45456 57.123506 129.99902 57.085938 129.4043 L 61.058594 129.4043 L 61.058594 128.98242 C 61.058594 128.19989 60.852629 127.58278 60.439453 127.12891 C 60.02941 126.67191 59.469123 126.44336 58.761719 126.44336 z M 65.001953 126.44336 C 64.623212 126.44336 64.296936 126.5185 64.021484 126.67188 C 63.746032 126.82525 63.509691 127.06431 63.3125 127.38672 L 63.3125 126.56836 L 62.443359 126.56836 L 62.443359 131.82812 L 63.3125 131.82812 L 63.3125 128.85547 C 63.3125 128.34526 63.441375 127.9419 63.701172 127.64453 C 63.960969 127.34404 64.312561 127.19336 64.753906 127.19336 C 65.126386 127.19336 65.401659 127.31639 65.580078 127.56055 C 65.758497 127.80157 65.847656 128.17456 65.847656 128.68164 L 65.847656 131.82812 L 66.716797 131.82812 L 66.716797 128.85547 C 66.716797 128.34213 66.845672 127.93799 67.105469 127.64062 C 67.365268 127.34326 67.720364 127.19336 68.167969 127.19336 C 68.53419 127.19336 68.805956 127.31639 68.984375 127.56055 C 69.162794 127.8047 69.251953 128.17769 69.251953 128.68164 L 69.251953 131.82812 L 70.121094 131.82812 L 70.121094 128.6543 C 70.121094 127.94689 69.971189 127.40141 69.673828 127.01953 C 69.37647 126.63452 68.954019 126.44336 68.40625 126.44336 C 67.999336 126.44336 67.646193 126.53408 67.345703 126.71875 C 67.045223 126.90343 66.7863 127.18999 66.570312 127.57812 C 66.441977 127.20876 66.243797 126.92844 65.974609 126.73438 C 65.708548 126.54031 65.383827 126.44336 65.001953 126.44336 z M 73.689453 126.44336 C 73.407745 126.44336 73.117673 126.47452 72.820312 126.53711 C 72.522952 126.59657 72.21653 126.68652 71.900391 126.80859 L 71.900391 127.60742 C 72.163317 127.46342 72.43586 127.35519 72.720703 127.2832 C 73.005541 127.21122 73.299119 127.17578 73.599609 127.17578 C 74.072257 127.17578 74.437466 127.28479 74.697266 127.50391 C 74.960192 127.71989 75.091797 128.0263 75.091797 128.42383 L 75.091797 128.50781 L 73.880859 128.50781 C 73.095204 128.50781 72.502992 128.65849 72.105469 128.95898 C 71.711073 129.25948 71.515625 129.70528 71.515625 130.29688 C 71.515625 130.80396 71.672139 131.21005 71.988281 131.51367 C 72.307551 131.81417 72.73701 131.96484 73.275391 131.96484 C 73.701084 131.96484 74.06124 131.88853 74.355469 131.73828 C 74.649705 131.58491 74.894606 131.34857 75.091797 131.0293 L 75.091797 131.82812 L 75.957031 131.82812 L 75.957031 128.82812 C 75.957031 128.02681 75.76819 127.4276 75.392578 127.0332 C 75.016964 126.6388 74.45007 126.44336 73.689453 126.44336 z M 79.40625 126.44336 C 78.761447 126.44336 78.264634 126.57651 77.914062 126.8457 C 77.563491 127.1149 77.388672 127.49763 77.388672 127.99219 C 77.388672 128.39911 77.506257 128.72032 77.744141 128.95508 C 77.982029 129.18672 78.369048 129.35802 78.904297 129.4707 L 79.205078 129.54102 C 79.740337 129.65682 80.08569 129.77714 80.242188 129.90234 C 80.40181 130.02755 80.482422 130.2086 80.482422 130.44336 C 80.482422 130.69691 80.373409 130.89431 80.154297 131.03516 C 79.935188 131.17288 79.621758 131.24023 79.214844 131.24023 C 78.911224 131.24023 78.604805 131.20053 78.294922 131.11914 C 77.985043 131.03463 77.670834 130.91004 77.351562 130.74414 L 77.351562 131.63477 C 77.689614 131.74432 78.00888 131.82569 78.3125 131.87891 C 78.619254 131.93525 78.913604 131.96484 79.195312 131.96484 C 79.871417 131.96484 80.402107 131.82195 80.787109 131.53711 C 81.175242 131.25226 81.369141 130.86525 81.369141 130.37695 C 81.369141 129.94812 81.240268 129.61484 80.980469 129.37695 C 80.723801 129.13592 80.289284 128.94981 79.675781 128.81836 L 79.378906 128.75195 C 78.91565 128.64865 78.606498 128.54041 78.453125 128.42773 C 78.299752 128.31191 78.224609 128.15539 78.224609 127.95508 C 78.224609 127.69216 78.330106 127.49476 78.542969 127.36328 C 78.758946 127.2318 79.08094 127.16602 79.509766 127.16602 C 79.791474 127.16602 80.065196 127.19718 80.328125 127.25977 C 80.591044 127.32238 80.843733 127.41581 81.087891 127.54102 L 81.087891 126.72461 C 80.850005 126.6307 80.590307 126.56061 80.308594 126.51367 C 80.026885 126.46673 79.725519 126.44336 79.40625 126.44336 z M 94.107422 126.44336 C 93.318634 126.44336 92.690996 126.69604 92.224609 127.20312 C 91.761355 127.70708 91.529297 128.38921 91.529297 129.25 C 91.529297 130.08262 91.773424 130.74412 92.261719 131.23242 C 92.753148 131.72073 93.418946 131.96484 94.257812 131.96484 C 94.592734 131.96484 94.922516 131.93019 95.248047 131.86133 C 95.57358 131.79247 95.891293 131.692 96.201172 131.56055 L 96.201172 130.74414 C 95.894423 130.90691 95.584497 131.02799 95.271484 131.10938 C 94.961606 131.19076 94.642339 131.23242 94.310547 131.23242 C 93.737737 131.23242 93.289196 131.07746 92.966797 130.76758 C 92.647533 130.45456 92.469209 129.99902 92.431641 129.4043 L 96.404297 129.4043 L 96.404297 128.98242 C 96.404297 128.19989 96.196376 127.58278 95.783203 127.12891 C 95.373155 126.67191 94.814823 126.44336 94.107422 126.44336 z M 111.69141 126.44336 C 111.04661 126.44336 110.52721 126.68826 110.13281 127.17969 C 109.73842 127.67112 109.54102 128.32288 109.54102 129.13672 C 109.54102 129.94742 109.73842 130.59841 110.13281 131.08984 C 110.52721 131.58128 111.04661 131.82812 111.69141 131.82812 C 112.07954 131.82813 112.41282 131.75103 112.69141 131.59766 C 112.96998 131.44428 113.19853 131.21223 113.37695 130.90234 L 113.37695 131.33008 C 113.37695 131.92793 113.23679 132.37374 112.95508 132.66797 C 112.67337 132.96533 112.24819 133.11523 111.68164 133.11523 C 111.42497 133.11523 111.17306 133.08136 110.92578 133.01562 C 110.6785 132.94989 110.42737 132.84866 110.17383 132.71094 L 110.17383 133.55078 C 110.42737 133.64469 110.6898 133.714 110.95898 133.75781 C 111.22817 133.80475 111.51474 133.82812 111.81836 133.82812 C 112.63845 133.82812 113.24701 133.60814 113.64453 133.16992 C 114.04205 132.73483 114.24023 132.071 114.24023 131.17578 L 114.24023 126.56836 L 113.37695 126.56836 L 113.37695 127.36719 C 113.19854 127.0573 112.96999 126.82525 112.69141 126.67188 C 112.41282 126.5185 112.07954 126.44336 111.69141 126.44336 z M 123.20898 126.44336 C 122.92728 126.44336 122.6372 126.47452 122.33984 126.53711 C 122.04248 126.59657 121.73606 126.68652 121.41992 126.80859 L 121.41992 127.60742 C 121.68285 127.46342 121.95539 127.35519 122.24023 127.2832 C 122.52507 127.21122 122.81865 127.17578 123.11914 127.17578 C 123.59179 127.17578 123.95895 127.28479 124.21875 127.50391 C 124.48168 127.71989 124.61133 128.0263 124.61133 128.42383 L 124.61133 128.50781 L 123.40039 128.50781 C 122.61474 128.50781 122.02448 128.65849 121.62695 128.95898 C 121.23256 129.25948 121.03516 129.70528 121.03516 130.29688 C 121.03516 130.80396 121.19167 131.21005 121.50781 131.51367 C 121.82708 131.81417 122.25654 131.96484 122.79492 131.96484 C 123.22062 131.96484 123.58077 131.88853 123.875 131.73828 C 124.16924 131.58491 124.41414 131.34857 124.61133 131.0293 L 124.61133 131.82812 L 125.47656 131.82812 L 125.47656 128.82812 C 125.47656 128.02681 125.28772 127.4276 124.91211 127.0332 C 124.53649 126.6388 123.9696 126.44336 123.20898 126.44336 z M 129.79102 126.44336 C 129.42479 126.44336 129.10007 126.52124 128.81836 126.67773 C 128.53978 126.83424 128.29839 127.07057 128.0918 127.38672 L 128.0918 126.56836 L 127.22266 126.56836 L 127.22266 131.82812 L 128.0918 131.82812 L 128.0918 128.85547 C 128.0918 128.34213 128.22691 127.93799 128.49609 127.64062 C 128.76528 127.34326 129.13127 127.19336 129.59766 127.19336 C 129.98579 127.19336 130.27859 127.31717 130.47266 127.56445 C 130.66672 127.81174 130.76367 128.18395 130.76367 128.68164 L 130.76367 131.82812 L 131.62695 131.82812 L 131.62695 128.6543 C 131.62695 127.9281 131.47199 127.37835 131.16211 127.00586 C 130.85223 126.63024 130.39513 126.44336 129.79102 126.44336 z M 135.61719 126.44336 C 134.7971 126.44336 134.15038 126.68826 133.67773 127.17969 C 133.20822 127.67112 132.97461 128.34547 132.97461 129.20312 C 132.97461 130.04826 133.20744 130.7191 133.67383 131.2168 C 134.14021 131.71449 134.76863 131.96484 135.56055 131.96484 C 135.85165 131.96484 136.12614 131.93525 136.38281 131.87891 C 136.6426 131.82257 136.89373 131.73963 137.13477 131.62695 L 137.13477 130.82812 C 136.89062 130.96273 136.64377 131.06395 136.39648 131.13281 C 136.15233 131.19855 135.9047 131.23242 135.6543 131.23242 C 135.09401 131.23242 134.65949 131.05488 134.34961 130.70117 C 134.03973 130.34434 133.88477 129.84481 133.88477 129.20312 C 133.88477 128.56145 134.03973 128.06465 134.34961 127.71094 C 134.65949 127.3541 135.09401 127.17578 135.6543 127.17578 C 135.9047 127.17578 136.15233 127.20848 136.39648 127.27734 C 136.64375 127.34308 136.89061 127.44352 137.13477 127.57812 L 137.13477 126.77148 C 136.89688 126.66193 136.65002 126.58056 136.39648 126.52734 C 136.14294 126.471 135.88325 126.44336 135.61719 126.44336 z M 143.1543 126.44336 C 142.87259 126.44336 142.58251 126.47452 142.28516 126.53711 C 141.9878 126.59657 141.68138 126.68652 141.36523 126.80859 L 141.36523 127.60742 C 141.62817 127.46342 141.90071 127.35519 142.18555 127.2832 C 142.47039 127.21122 142.76396 127.17578 143.06445 127.17578 C 143.5371 127.17578 143.90231 127.28479 144.16211 127.50391 C 144.42504 127.71989 144.55664 128.0263 144.55664 128.42383 L 144.55664 128.50781 L 143.3457 128.50781 C 142.56005 128.50781 141.96784 128.65849 141.57031 128.95898 C 141.17592 129.25948 140.98047 129.70528 140.98047 130.29688 C 140.98047 130.80396 141.13699 131.21005 141.45312 131.51367 C 141.7724 131.81417 142.20186 131.96484 142.74023 131.96484 C 143.16593 131.96484 143.52608 131.88853 143.82031 131.73828 C 144.11455 131.58491 144.35945 131.34857 144.55664 131.0293 L 144.55664 131.82812 L 145.42188 131.82812 L 145.42188 128.82812 C 145.42188 128.02681 145.23303 127.4276 144.85742 127.0332 C 144.48181 126.6388 143.91491 126.44336 143.1543 126.44336 z M 158.86719 126.44336 C 158.0784 126.44336 157.45271 126.69604 156.98633 127.20312 C 156.52307 127.70708 156.29102 128.38921 156.29102 129.25 C 156.29102 130.08262 156.53514 130.74412 157.02344 131.23242 C 157.51486 131.72073 158.17871 131.96484 159.01758 131.96484 C 159.3525 131.96484 159.68423 131.93019 160.00977 131.86133 C 160.3353 131.79247 160.65301 131.692 160.96289 131.56055 L 160.96289 130.74414 C 160.65614 130.90691 160.34621 131.02799 160.0332 131.10938 C 159.72332 131.19076 159.4021 131.23242 159.07031 131.23242 C 158.4975 131.23242 158.04896 131.07746 157.72656 130.76758 C 157.4073 130.45456 157.22897 129.99902 157.19141 129.4043 L 161.16406 129.4043 L 161.16406 128.98242 C 161.16406 128.19989 160.95809 127.58278 160.54492 127.12891 C 160.13488 126.67191 159.57459 126.44336 158.86719 126.44336 z M 165.1875 126.44336 C 164.7712 126.44336 164.41805 126.52124 164.12695 126.67773 C 163.83585 126.83111 163.59951 127.06744 163.41797 127.38672 L 163.41797 126.56836 L 162.54883 126.56836 L 162.54883 131.82812 L 163.41797 131.82812 L 163.41797 129.05859 C 163.41797 128.46387 163.54684 128.00755 163.80664 127.69141 C 164.06957 127.37213 164.4453 127.21289 164.93359 127.21289 C 165.07132 127.21289 165.19787 127.22574 165.31055 127.25391 C 165.42638 127.27895 165.53187 127.32061 165.62891 127.37695 L 165.625 126.49023 C 165.53734 126.47461 165.45675 126.46333 165.38477 126.45703 C 165.31275 126.44771 165.24696 126.44336 165.1875 126.44336 z M 168.52539 126.44336 C 167.7366 126.44336 167.10896 126.69604 166.64258 127.20312 C 166.17932 127.70708 165.94922 128.38921 165.94922 129.25 C 165.94922 130.08262 166.19334 130.74412 166.68164 131.23242 C 167.17307 131.72073 167.83691 131.96484 168.67578 131.96484 C 169.0107 131.96484 169.34244 131.93019 169.66797 131.86133 C 169.9935 131.79247 170.30926 131.692 170.61914 131.56055 L 170.61914 130.74414 C 170.31239 130.90691 170.00442 131.02799 169.69141 131.10938 C 169.38153 131.19076 169.06031 131.23242 168.72852 131.23242 C 168.15571 131.23242 167.70716 131.07746 167.38477 130.76758 C 167.0655 130.45456 166.88718 129.99902 166.84961 129.4043 L 170.82227 129.4043 L 170.82227 128.98242 C 170.82227 128.19989 170.6163 127.58278 170.20312 127.12891 C 169.79308 126.67191 169.23279 126.44336 168.52539 126.44336 z M 174.08594 126.44336 C 173.80423 126.44336 173.51416 126.47452 173.2168 126.53711 C 172.91944 126.59657 172.61301 126.68652 172.29688 126.80859 L 172.29688 127.60742 C 172.5598 127.46342 172.83235 127.35519 173.11719 127.2832 C 173.40203 127.21122 173.69561 127.17578 173.99609 127.17578 C 174.46874 127.17578 174.83395 127.28479 175.09375 127.50391 C 175.35668 127.71989 175.48828 128.0263 175.48828 128.42383 L 175.48828 128.50781 L 174.27734 128.50781 C 173.49169 128.50781 172.89948 128.65849 172.50195 128.95898 C 172.10756 129.25948 171.91211 129.70528 171.91211 130.29688 C 171.91211 130.80396 172.06863 131.21005 172.38477 131.51367 C 172.70404 131.81417 173.1335 131.96484 173.67188 131.96484 C 174.09757 131.96484 174.45772 131.88853 174.75195 131.73828 C 175.04619 131.58491 175.29109 131.34857 175.48828 131.0293 L 175.48828 131.82812 L 176.35352 131.82812 L 176.35352 128.82812 C 176.35352 128.02681 176.16468 127.4276 175.78906 127.0332 C 175.41345 126.6388 174.84655 126.44336 174.08594 126.44336 z M 45.109375 126.56836 L 45.109375 131.82812 L 45.972656 131.82812 L 45.972656 126.56836 L 45.109375 126.56836 z M 107.24414 126.56836 L 107.24414 131.82812 L 108.10938 131.82812 L 108.10938 126.56836 L 107.24414 126.56836 z M 116.01953 126.56836 L 116.01953 131.82812 L 116.88477 131.82812 L 116.88477 126.56836 L 116.01953 126.56836 z M 138.63672 126.56836 L 138.63672 131.82812 L 139.5 131.82812 L 139.5 126.56836 L 138.63672 126.56836 z M 87.787109 127.16602 C 88.244105 127.16602 88.604256 127.34784 88.867188 127.71094 C 89.130114 128.0709 89.261719 128.56771 89.261719 129.20312 C 89.261719 129.83854 89.130114 130.33808 88.867188 130.70117 C 88.604256 131.06114 88.244105 131.24023 87.787109 131.24023 C 87.330114 131.24023 86.971911 131.06114 86.708984 130.70117 C 86.449185 130.33808 86.318359 129.83854 86.318359 129.20312 C 86.318359 128.56771 86.449185 128.0709 86.708984 127.71094 C 86.971911 127.34784 87.330114 127.16602 87.787109 127.16602 z M 111.90234 127.16602 C 112.36873 127.16602 112.72966 127.33732 112.98633 127.68164 C 113.24613 128.02596 113.37695 128.51069 113.37695 129.13672 C 113.37695 129.75962 113.24613 130.24358 112.98633 130.58789 C 112.72966 130.93221 112.36873 131.10547 111.90234 131.10547 C 111.43909 131.10547 111.07816 130.93221 110.81836 130.58789 C 110.56169 130.24358 110.43359 129.75962 110.43359 129.13672 C 110.43359 128.51069 110.56169 128.02596 110.81836 127.68164 C 111.07816 127.33732 111.43909 127.16602 111.90234 127.16602 z M 58.771484 127.17578 C 59.19718 127.17578 59.538252 127.31594 59.794922 127.59766 C 60.054679 127.87937 60.189013 128.25587 60.195312 128.72852 L 57.115234 128.73438 C 57.159057 128.23981 57.323358 127.85631 57.611328 127.58398 C 57.902427 127.31166 58.289448 127.17578 58.771484 127.17578 z M 94.117188 127.17578 C 94.542883 127.17578 94.883955 127.31594 95.140625 127.59766 C 95.400384 127.87937 95.532763 128.25587 95.539062 128.72852 L 92.458984 128.73438 C 92.502804 128.23981 92.669059 127.85631 92.957031 127.58398 C 93.24813 127.31166 93.635152 127.17578 94.117188 127.17578 z M 158.87695 127.17578 C 159.30265 127.17578 159.64372 127.31594 159.90039 127.59766 C 160.16015 127.87937 160.29448 128.25587 160.30078 128.72852 L 157.2207 128.73438 C 157.26453 128.23981 157.43078 127.85631 157.71875 127.58398 C 158.00985 127.31166 158.39492 127.17578 158.87695 127.17578 z M 168.53516 127.17578 C 168.96085 127.17578 169.30192 127.31594 169.55859 127.59766 C 169.81835 127.87937 169.95269 128.25587 169.95898 128.72852 L 166.87891 128.73438 C 166.92273 128.23981 167.08703 127.85631 167.375 127.58398 C 167.6661 127.31166 168.05312 127.17578 168.53516 127.17578 z M 74.232422 129.18359 L 75.091797 129.18359 L 75.091797 129.37695 C 75.091797 129.94038 74.947349 130.39319 74.65625 130.73438 C 74.36828 131.07243 73.984766 131.24023 73.505859 131.24023 C 73.158425 131.24023 72.883152 131.15108 72.679688 130.97266 C 72.479347 130.79111 72.378906 130.54699 72.378906 130.24023 C 72.378906 129.85524 72.514013 129.58348 72.783203 129.42383 C 73.052391 129.26418 73.534409 129.18359 74.232422 129.18359 z M 123.75391 129.18359 L 124.61133 129.18359 L 124.61133 129.37695 C 124.61133 129.94038 124.46688 130.39319 124.17578 130.73438 C 123.88781 131.07243 123.5043 131.24023 123.02539 131.24023 C 122.67796 131.24023 122.40268 131.15108 122.19922 130.97266 C 121.9989 130.79111 121.89844 130.54699 121.89844 130.24023 C 121.89844 129.85524 122.03355 129.58348 122.30273 129.42383 C 122.57192 129.26418 123.05589 129.18359 123.75391 129.18359 z M 143.69727 129.18359 L 144.55664 129.18359 L 144.55664 129.37695 C 144.55664 129.94038 144.4122 130.39319 144.12109 130.73438 C 143.83312 131.07243 143.44961 131.24023 142.9707 131.24023 C 142.62327 131.24023 142.348 131.15108 142.14453 130.97266 C 141.94422 130.79111 141.84375 130.54699 141.84375 130.24023 C 141.84375 129.85524 141.97886 129.58348 142.24805 129.42383 C 142.51723 129.26418 142.99925 129.18359 143.69727 129.18359 z M 174.62891 129.18359 L 175.48828 129.18359 L 175.48828 129.37695 C 175.48828 129.94038 175.34383 130.39319 175.05273 130.73438 C 174.76476 131.07243 174.38125 131.24023 173.90234 131.24023 C 173.55491 131.24023 173.27964 131.15108 173.07617 130.97266 C 172.87583 130.79111 172.77539 130.54699 172.77539 130.24023 C 172.77539 129.85524 172.9105 129.58348 173.17969 129.42383 C 173.44888 129.26418 173.9309 129.18359 174.62891 129.18359 z "
     transform="scale(0.26458333)"
     id="path914" />
  <path
     style="font-style:normal;font-variant:normal;font-weight:bold;font-stretch:normal;font-size:11.34851456px;line-height:1.25;font-family:Cabin;-inkscape-font-specification:'Cabin Bold';letter-spacing:0px;word-spacing:0px;white-space:pre;shape-inside:url(#rect17-5-4);fill:#ffffff;fill-opacity:1;stroke:none;stroke-width:0.8297711"
     d="M 85.308594 87.935547 C 79.923311 87.935547 75.681217 89.382979 72.583984 92.275391 C 69.48675 95.1678 67.9375 99.135434 67.9375 104.17969 C 67.9375 109.16805 69.458571 113.12261 72.5 116.04297 C 75.541426 118.94935 79.665227 120.40234 84.869141 120.40234 C 87.17114 120.40234 89.401971 120.15898 91.564453 119.66992 C 93.726938 119.18087 95.81325 118.44686 97.822266 117.46875 L 97.822266 102.41992 L 85.265625 102.41992 L 85.265625 107.82617 L 90.183594 107.82617 L 90.183594 113.90625 C 89.611582 114.12983 88.963759 114.29643 88.238281 114.4082 C 87.526752 114.50602 86.751152 114.55469 85.914062 114.55469 C 82.830779 114.55469 80.453476 113.65408 78.779297 111.85156 C 77.105117 110.04905 76.267578 107.49129 76.267578 104.17969 C 76.267578 100.84014 77.131343 98.276824 78.861328 96.488281 C 80.605268 94.685764 83.082171 93.783203 86.291016 93.783203 C 88.021004 93.783203 89.744903 94.028522 91.460938 94.517578 C 93.190926 95.006634 94.927938 95.748154 96.671875 96.740234 L 96.671875 90.263672 C 94.983744 89.495155 93.182839 88.914682 91.271484 88.523438 C 89.374076 88.132193 87.387367 87.935547 85.308594 87.935547 z M 16.896484 88.501953 L 28.46875 119.79492 L 38.074219 119.79492 L 49.648438 88.501953 L 41.548828 88.501953 L 33.283203 111.59961 L 24.996094 88.501953 L 16.896484 88.501953 z M 53.791016 88.501953 L 53.791016 119.79492 L 61.847656 119.79492 L 61.847656 88.501953 L 53.791016 88.501953 z M 104.91602 88.501953 L 104.91602 119.79492 L 112.97266 119.79492 L 112.97266 88.501953 L 104.91602 88.501953 z "
     transform="scale(0.26458333)"
     id="path965" />
  <path
     style="font-style:normal;font-variant:normal;font-weight:bold;font-stretch:normal;font-size:11.34851456px;line-height:1.25;font-family:Cabin;-inkscape-font-specification:'Cabin Bold';letter-spacing:0px;word-spacing:0px;white-space:pre;shape-inside:url(#rect17-5-4);fill:#009cdb;fill-opacity:1;stroke:none;stroke-width:0.8297711"
     d="M 155.37891 81.201172 L 155.37891 83.953125 L 155.37891 86.705078 L 158.07422 86.705078 L 160.76953 86.705078 L 160.76953 83.953125 L 160.76953 81.201172 L 158.07422 81.201172 L 155.37891 81.201172 z M 128.71094 88.501953 L 117.13867 119.79492 L 125.23633 119.79492 L 127.22461 114.09375 L 139.82422 114.09375 L 141.79102 119.79492 L 149.88867 119.79492 L 138.31641 88.501953 L 128.71094 88.501953 z M 154.0332 88.501953 L 154.0332 119.79492 L 162.08984 119.79492 L 162.08984 88.501953 L 154.0332 88.501953 z M 169.97852 88.501953 L 169.97852 119.79492 L 178.03711 119.79492 L 178.03711 107.95312 L 180.31836 107.95312 C 181.6298 107.95313 182.67575 108.23961 183.45703 108.8125 C 184.25227 109.38539 185.03345 110.45455 185.80078 112.01953 L 189.60938 119.79492 L 198.18945 119.79492 L 193.81641 110.9082 C 192.92351 109.10569 192.03715 107.76506 191.1582 106.88477 C 190.29321 105.99049 189.3092 105.41753 188.20703 105.16602 C 190.21605 104.53723 191.71648 103.5579 192.70703 102.23047 C 193.71154 100.90304 194.21289 99.204723 194.21289 97.136719 C 194.21289 94.146495 193.25148 91.96145 191.32617 90.578125 C 189.41482 89.194798 186.40085 88.501953 182.28516 88.501953 L 169.97852 88.501953 z M 178.03711 94.349609 L 181.42578 94.349609 C 183.11391 94.349609 184.3214 94.656674 185.04688 95.271484 C 185.7863 95.886298 186.15625 96.906786 186.15625 98.332031 C 186.15625 99.77125 185.7863 100.80481 185.04688 101.43359 C 184.3214 102.06238 183.11391 102.37695 181.42578 102.37695 L 178.03711 102.37695 L 178.03711 94.349609 z M 133.52344 95.837891 L 137.79297 108.28906 L 129.23438 108.28906 L 133.52344 95.837891 z "
     transform="scale(0.26458333)"
     id="path973" />
</svg>
