<?xml version="1.0" encoding="UTF-8" standalone="no"?>
<svg
   xmlns:osb="http://www.openswatchbook.org/uri/2009/osb"
   xmlns:dc="http://purl.org/dc/elements/1.1/"
   xmlns:cc="http://creativecommons.org/ns#"
   xmlns:rdf="http://www.w3.org/1999/02/22-rdf-syntax-ns#"
   xmlns:svg="http://www.w3.org/2000/svg"
   xmlns="http://www.w3.org/2000/svg"
   xmlns:sodipodi="http://sodipodi.sourceforge.net/DTD/sodipodi-0.dtd"
   xmlns:inkscape="http://www.inkscape.org/namespaces/inkscape"
   width="215"
   height="215"
   viewBox="0 0 56.885415 56.885415"
   version="1.1"
   id="svg204"
   sodipodi:docname="QGCLogoWhite.svg"
   inkscape:version="0.92.5 (2060ec1f9f, 2020-04-08)">
  <sodipodi:namedview
     pagecolor="#ffffff"
     bordercolor="#666666"
     borderopacity="1"
     objecttolerance="10"
     gridtolerance="10"
     guidetolerance="10"
     inkscape:pageopacity="0"
     inkscape:pageshadow="2"
     inkscape:window-width="1920"
     inkscape:window-height="1043"
     id="namedview855"
     showgrid="false"
     inkscape:zoom="3.9209302"
     inkscape:cx="107.5"
     inkscape:cy="107.5"
     inkscape:window-x="1920"
     inkscape:window-y="0"
     inkscape:window-maximized="1"
     inkscape:current-layer="svg204" />
  <defs
     id="defs198">
    <linearGradient
       id="linearGradient4921"
       osb:paint="solid">
      <stop
         style="stop-color:#000000;stop-opacity:1;"
         offset="0"
         id="stop4919" />
    </linearGradient>
  </defs>
  <metadata
     id="metadata201">
    <rdf:RDF>
      <cc:Work
         rdf:about="">
        <dc:format>image/svg+xml</dc:format>
        <dc:type
           rdf:resource="http://purl.org/dc/dcmitype/StillImage" />
        <dc:title />
      </cc:Work>
    </rdf:RDF>
  </metadata>
  <path
     style="opacity:0.98999999;fill:none;fill-opacity:1;stroke:#ffffff;stroke-width:2.39756823;stroke-miterlimit:4;stroke-dasharray:none;stroke-opacity:1"
     d="m 16.532685,1.1741616 h 23.842788 c 8.500818,0 15.344437,6.8436187 15.344437,15.3444364 v 23.856079 c 0,8.500818 -6.843619,15.344437 -15.344437,15.344437 H 16.532685 c -8.5008181,0 -15.3444368,-6.843619 -15.3444368,-15.344437 V 16.518598 c 0,-8.5008177 6.8436187,-15.3444364 15.3444368,-15.3444364 z"
     id="rect4911" />
  <path
     style="font-style:normal;font-variant:normal;font-weight:bold;font-stretch:normal;font-size:11.35208607px;line-height:1.25;font-family:Cabin;-inkscape-font-specification:'Cabin Bold';letter-spacing:0px;word-spacing:0px;white-space:pre;shape-inside:url(#rect17);fill:#ffffff;fill-opacity:1;stroke:none;stroke-width:0.83003217"
     d="M 85.292969 87.753906 C 79.904191 87.753906 75.659795 89.199445 72.560547 92.091797 C 69.461304 94.984153 67.912109 98.951944 67.912109 103.99609 C 67.912109 108.98435 69.433161 112.93908 72.476562 115.85938 C 75.519964 118.7657 79.646224 120.21875 84.853516 120.21875 C 87.157009 120.21875 89.3908 119.97342 91.554688 119.48438 C 93.718575 118.99533 95.806086 118.26325 97.816406 117.28516 L 97.816406 102.23633 L 85.251953 102.23633 L 85.251953 107.64258 L 90.171875 107.64258 L 90.171875 113.7207 C 89.599493 113.94428 88.950561 114.11284 88.224609 114.22461 C 87.512622 114.32242 86.738025 114.37109 85.900391 114.37109 C 82.815107 114.37109 80.435036 113.47045 78.759766 111.66797 C 77.0845 109.86549 76.246094 107.30763 76.246094 103.99609 C 76.246094 100.65661 77.112641 98.093198 78.84375 96.304688 C 80.588821 94.502208 83.066413 93.601562 86.277344 93.601562 C 88.008456 93.601563 89.732071 93.844939 91.449219 94.333984 C 93.180328 94.82303 94.918989 95.564578 96.664062 96.556641 L 96.664062 90.080078 C 94.97483 89.311579 93.174313 88.73108 91.261719 88.339844 C 89.363081 87.948607 87.373092 87.753906 85.292969 87.753906 z M 16.837891 88.318359 L 28.417969 119.61133 L 38.029297 119.61133 L 49.609375 88.318359 L 41.505859 88.318359 L 33.234375 111.41602 L 24.941406 88.318359 L 16.837891 88.318359 z M 53.755859 88.318359 L 53.755859 119.61133 L 61.818359 119.61133 L 61.818359 88.318359 L 53.755859 88.318359 z M 104.91406 88.318359 L 104.91406 119.61133 L 112.97656 119.61133 L 112.97656 88.318359 L 104.91406 88.318359 z "
     transform="scale(0.26458333)"
     id="path1042" />
  <path
     style="font-style:normal;font-variant:normal;font-weight:bold;font-stretch:normal;font-size:11.35208607px;line-height:1.25;font-family:Cabin;-inkscape-font-specification:'Cabin Bold';letter-spacing:0px;word-spacing:0px;white-space:pre;shape-inside:url(#rect17);fill:#009cdb;fill-opacity:1;stroke:none;stroke-width:0.83003217"
     d="M 155.36523 80.992188 L 155.36523 83.740234 L 155.36523 86.488281 L 158.05859 86.488281 L 160.75 86.488281 L 160.75 83.740234 L 160.75 80.992188 L 158.05859 80.992188 L 155.36523 80.992188 z M 128.72461 88.318359 L 117.14453 119.61133 L 125.24805 119.61133 L 127.23828 113.91016 L 139.84375 113.91016 L 141.8125 119.61133 L 149.91602 119.61133 L 138.33594 88.318359 L 128.72461 88.318359 z M 154.0625 88.318359 L 154.0625 119.61133 L 162.125 119.61133 L 162.125 88.318359 L 154.0625 88.318359 z M 170.01953 88.318359 L 170.01953 119.61133 L 178.08203 119.61133 L 178.08203 107.76953 L 180.36523 107.76953 C 181.67753 107.76953 182.72407 108.05602 183.50586 108.62891 C 184.30161 109.20179 185.08373 110.27099 185.85156 111.83594 L 189.66211 119.61133 L 198.24805 119.61133 L 193.87109 110.72461 C 192.97762 108.92213 192.09241 107.5795 191.21289 106.69922 C 190.34734 105.80494 189.36265 105.23391 188.25977 104.98242 C 190.27009 104.35365 191.77052 103.37428 192.76172 102.04688 C 193.76688 100.71947 194.26953 99.023039 194.26953 96.955078 C 194.26953 93.964915 193.30547 91.777831 191.37891 90.394531 C 189.46631 89.011232 186.45235 88.318359 182.33398 88.318359 L 170.01953 88.318359 z M 178.08203 94.166016 L 181.47461 94.166016 C 183.16384 94.166016 184.37171 94.47309 185.09766 95.087891 C 185.83756 95.702691 186.20703 96.72322 186.20703 98.148438 C 186.20703 99.587629 185.83756 100.62123 185.09766 101.25 C 184.37171 101.87877 183.16384 102.19336 181.47461 102.19336 L 178.08203 102.19336 L 178.08203 94.166016 z M 133.54102 95.654297 L 137.8125 108.10352 L 129.24805 108.10352 L 133.54102 95.654297 z "
     transform="scale(0.26458333)"
     id="path1050" />
  <path
     style="font-size:2.60346389px;line-height:1.25;font-family:sans-serif;text-align:center;letter-spacing:0px;text-anchor:middle;fill:#ffffff;stroke-width:0.75951922"
     d="M 122.99805 123.95508 L 121.8418 125.79297 L 122.49805 125.79297 L 123.34961 124.5957 L 124.19922 125.79297 L 124.85547 125.79297 L 123.69922 123.95508 L 122.99805 123.95508 z M 159.80859 123.95508 L 158.48633 125.79297 L 159.20898 125.79297 L 160.75 123.95508 L 159.80859 123.95508 z M 44.701172 124.35547 L 44.701172 125.49414 L 45.570312 125.49414 L 45.570312 124.35547 L 44.701172 124.35547 z M 89.142578 124.35547 L 89.142578 127.31641 C 88.959846 126.99077 88.727666 126.75007 88.447266 126.59375 C 88.170012 126.43418 87.835987 126.35352 87.445312 126.35352 C 86.805741 126.35352 86.286086 126.61699 85.882812 127.14453 C 85.482684 127.67208 85.28125 128.36687 85.28125 129.22656 C 85.28125 130.08626 85.482684 130.7791 85.882812 131.30664 C 86.286086 131.83418 86.805741 132.09766 87.445312 132.09766 C 87.835987 132.09766 88.170012 132.0196 88.447266 131.86328 C 88.727671 131.70372 88.959851 131.46237 89.142578 131.13672 L 89.142578 131.95703 L 90.011719 131.95703 L 90.011719 124.35547 L 89.142578 124.35547 z M 107.24219 124.35547 L 107.24219 125.49414 L 108.11328 125.49414 L 108.11328 124.35547 L 107.24219 124.35547 z M 116.07617 124.35547 L 116.07617 125.49414 L 116.94531 125.49414 L 116.94531 124.35547 L 116.07617 124.35547 z M 118.76367 124.35547 L 118.76367 131.95703 L 119.63477 131.95703 L 119.63477 124.35547 L 118.76367 124.35547 z M 138.83984 124.35547 L 138.83984 125.49414 L 139.70898 125.49414 L 139.70898 124.35547 L 138.83984 124.35547 z M 40.759766 124.53125 C 39.98787 124.53125 39.380534 124.71666 38.939453 125.08789 C 38.501519 125.45912 38.283203 125.96851 38.283203 126.61328 C 38.283203 127.17013 38.441557 127.60535 38.759766 127.91797 C 39.077977 128.23058 39.592652 128.45892 40.304688 128.60547 L 40.886719 128.72266 C 41.371927 128.8236 41.720567 128.97583 41.931641 129.17773 C 42.145864 129.37963 42.251953 129.65937 42.251953 130.01758 C 42.251953 130.4279 42.10475 130.74341 41.808594 130.96484 C 41.512438 131.18627 41.091931 131.29688 40.546875 131.29688 C 40.187709 131.29687 39.820988 131.24092 39.449219 131.12695 C 39.077447 131.01296 38.698069 130.84382 38.310547 130.61914 L 38.310547 131.63477 C 38.713825 131.78781 39.103597 131.90231 39.478516 131.98047 C 39.856587 132.05863 40.212913 132.09766 40.546875 132.09766 C 41.432194 132.09766 42.10371 131.9155 42.560547 131.55078 C 43.020533 131.18606 43.25 130.65001 43.25 129.94336 C 43.25 129.35069 43.078545 128.87904 42.738281 128.52734 C 42.401168 128.17238 41.878051 127.92518 41.166016 127.78516 L 40.589844 127.66211 C 40.066838 127.56116 39.710511 127.4304 39.521484 127.26758 C 39.335607 127.1015 39.242188 126.85754 39.242188 126.53516 C 39.242187 126.15091 39.381706 125.85491 39.662109 125.64648 C 39.945662 125.43806 40.347341 125.33398 40.867188 125.33398 C 41.166496 125.33398 41.47747 125.37693 41.798828 125.46484 C 42.120189 125.55275 42.461898 125.68611 42.824219 125.86523 L 42.824219 124.90234 C 42.46505 124.77858 42.112947 124.68686 41.769531 124.625 C 41.426118 124.56314 41.09058 124.53125 40.759766 124.53125 z M 99.998047 124.66406 L 102.69141 131.95703 L 103.77344 131.95703 L 106.46289 124.66406 L 105.4707 124.66406 L 103.23047 130.80469 L 100.99609 124.66406 L 99.998047 124.66406 z M 152.39453 124.66406 L 149.70117 131.95703 L 150.70703 131.95703 L 151.34961 130.08594 L 154.5293 130.08594 L 155.17383 131.95703 L 156.16602 131.95703 L 153.47656 124.66406 L 152.39453 124.66406 z M 52.417969 124.93164 L 52.417969 126.48633 L 51.779297 126.48633 L 51.779297 127.18359 L 52.417969 127.18359 L 52.417969 130.1543 C 52.417969 130.83815 52.545583 131.30979 52.800781 131.57031 C 53.055977 131.82757 53.518378 131.95703 54.189453 131.95703 L 55.083984 131.95703 L 55.083984 131.20508 L 54.189453 131.20508 C 53.827148 131.20508 53.586532 131.14069 53.466797 131.01367 C 53.350211 130.88667 53.292969 130.60043 53.292969 130.1543 L 53.292969 127.18359 L 55.083984 127.18359 L 55.083984 126.48633 L 53.292969 126.48633 L 53.292969 124.93164 L 52.417969 124.93164 z M 152.93359 125.63672 L 154.23242 129.26562 L 151.63867 129.26562 L 152.93359 125.63672 z M 49.072266 126.35352 C 48.423243 126.35352 47.921226 126.49338 47.568359 126.77344 C 47.215493 127.05349 47.039063 127.45228 47.039062 127.9668 C 47.039062 128.39013 47.158992 128.72256 47.398438 128.9668 C 47.637883 129.20779 48.027655 129.38669 48.566406 129.50391 L 48.869141 129.57812 C 49.407895 129.69859 49.756532 129.82286 49.914062 129.95312 C 50.074743 130.08338 50.154297 130.27139 50.154297 130.51562 C 50.154297 130.77939 50.044767 130.98431 49.824219 131.13086 C 49.603678 131.27413 49.288484 131.3457 48.878906 131.3457 C 48.573296 131.3457 48.263079 131.30341 47.951172 131.21875 C 47.639263 131.13083 47.323314 131.00072 47.001953 130.82812 L 47.001953 131.75586 C 47.342216 131.86982 47.665096 131.95441 47.970703 132.00977 C 48.279463 132.06837 48.575822 132.09766 48.859375 132.09766 C 49.539904 132.09766 50.073415 131.95063 50.460938 131.6543 C 50.851612 131.35796 51.046875 130.95527 51.046875 130.44727 C 51.046875 130.00113 50.915797 129.65373 50.654297 129.40625 C 50.395949 129.1555 49.959314 128.96294 49.341797 128.82617 L 49.042969 128.75781 C 48.576681 128.65035 48.267662 128.53714 48.113281 128.41992 C 47.9589 128.29945 47.880859 128.13616 47.880859 127.92773 C 47.880859 127.65419 47.988901 127.44732 48.203125 127.31055 C 48.420513 127.17378 48.744147 127.10547 49.175781 127.10547 C 49.459334 127.10547 49.733397 127.13802 49.998047 127.20312 C 50.262674 127.26823 50.517902 127.36583 50.763672 127.49609 L 50.763672 126.64648 C 50.524226 126.5488 50.262068 126.47659 49.978516 126.42773 C 49.694963 126.37888 49.393626 126.35352 49.072266 126.35352 z M 58.443359 126.35352 C 57.649409 126.35352 57.018266 126.61699 56.548828 127.14453 C 56.08254 127.66881 55.849609 128.37987 55.849609 129.27539 C 55.849609 130.14161 56.094445 130.82793 56.585938 131.33594 C 57.080582 131.84394 57.749393 132.09766 58.59375 132.09766 C 58.930864 132.09766 59.264135 132.06189 59.591797 131.99023 C 59.919462 131.91857 60.238874 131.8145 60.550781 131.67773 L 60.550781 130.82812 C 60.242024 130.99748 59.930293 131.12432 59.615234 131.20898 C 59.303325 131.29365 58.980448 131.33594 58.646484 131.33594 C 58.069925 131.33594 57.619432 131.1759 57.294922 130.85352 C 56.973549 130.52787 56.793655 130.05427 56.755859 129.43555 L 60.753906 129.43555 L 60.753906 128.99609 C 60.753906 128.18198 60.546738 127.53859 60.130859 127.06641 C 59.718132 126.59097 59.155395 126.35352 58.443359 126.35352 z M 64.724609 126.35352 C 64.343389 126.35352 64.013579 126.43418 63.736328 126.59375 C 63.459087 126.75331 63.221938 127.00052 63.023438 127.33594 L 63.023438 126.48633 L 62.148438 126.48633 L 62.148438 131.95703 L 63.023438 131.95703 L 63.023438 128.86523 C 63.023437 128.33443 63.152565 127.91288 63.414062 127.60352 C 63.675563 127.2909 64.028423 127.13477 64.472656 127.13477 C 64.847583 127.13477 65.12511 127.26161 65.304688 127.51562 C 65.484265 127.76637 65.574219 128.15605 65.574219 128.68359 L 65.574219 131.95703 L 66.449219 131.95703 L 66.449219 128.86523 C 66.449219 128.33118 66.580296 127.90897 66.841797 127.59961 C 67.103295 127.29025 67.459621 127.13477 67.910156 127.13477 C 68.278784 127.13477 68.552844 127.26161 68.732422 127.51562 C 68.912 127.76963 69.001953 128.15931 69.001953 128.68359 L 69.001953 131.95703 L 69.875 131.95703 L 69.875 128.6543 C 69.875 127.91834 69.725087 127.35236 69.425781 126.95508 C 69.126473 126.55454 68.701746 126.35352 68.150391 126.35352 C 67.740816 126.35352 67.384489 126.45045 67.082031 126.64258 C 66.779556 126.83471 66.520108 127.13136 66.302734 127.53516 C 66.17356 127.1509 65.974077 126.85815 65.703125 126.65625 C 65.435325 126.45437 65.108982 126.35352 64.724609 126.35352 z M 73.466797 126.35352 C 73.183244 126.35352 72.891103 126.38606 72.591797 126.45117 C 72.292491 126.51303 71.984227 126.60736 71.666016 126.73438 L 71.666016 127.56445 C 71.930666 127.41468 72.207436 127.30343 72.494141 127.22852 C 72.780846 127.15361 73.074498 127.11523 73.376953 127.11523 C 73.852695 127.11523 74.220924 127.22908 74.482422 127.45703 C 74.747072 127.68173 74.880859 128.00245 74.880859 128.41602 L 74.880859 128.50391 L 73.660156 128.50391 C 72.869358 128.50391 72.275126 128.66004 71.875 128.97266 C 71.478026 129.28527 71.279297 129.74977 71.279297 130.36523 C 71.279297 130.89278 71.437648 131.31303 71.755859 131.62891 C 72.077217 131.94152 72.508875 132.09766 73.050781 132.09766 C 73.479261 132.09766 73.842516 132.0196 74.138672 131.86328 C 74.434813 131.70372 74.682359 131.45911 74.880859 131.12695 L 74.880859 131.95703 L 75.75 131.95703 L 75.75 128.83594 C 75.75 128.00229 75.559712 127.37906 75.181641 126.96875 C 74.803569 126.55844 74.232393 126.35352 73.466797 126.35352 z M 79.222656 126.35352 C 78.573633 126.35352 78.07357 126.49338 77.720703 126.77344 C 77.367836 127.05349 77.191406 127.45228 77.191406 127.9668 C 77.191406 128.39013 77.311336 128.72256 77.550781 128.9668 C 77.790227 129.20779 78.178048 129.38669 78.716797 129.50391 L 79.019531 129.57812 C 79.558283 129.69859 79.906922 129.82286 80.064453 129.95312 C 80.225133 130.08338 80.304688 130.27139 80.304688 130.51562 C 80.304688 130.77939 80.195157 130.98431 79.974609 131.13086 C 79.754066 131.27413 79.438874 131.3457 79.029297 131.3457 C 78.723689 131.3457 78.415422 131.30341 78.103516 131.21875 C 77.791606 131.13083 77.473707 131.00072 77.152344 130.82812 L 77.152344 131.75586 C 77.49261 131.86982 77.815486 131.95441 78.121094 132.00977 C 78.429853 132.06837 78.726213 132.09766 79.009766 132.09766 C 79.690295 132.09766 80.225759 131.95063 80.613281 131.6543 C 81.003956 131.35796 81.199219 130.95527 81.199219 130.44727 C 81.199219 130.00113 81.068144 129.65373 80.806641 129.40625 C 80.548295 129.1555 80.109707 128.96294 79.492188 128.82617 L 79.195312 128.75781 C 78.729025 128.65035 78.418053 128.53714 78.263672 128.41992 C 78.109291 128.29945 78.03125 128.13616 78.03125 127.92773 C 78.03125 127.65419 78.139292 127.44732 78.353516 127.31055 C 78.570904 127.17378 78.89454 127.10547 79.326172 127.10547 C 79.609725 127.10547 79.883787 127.13802 80.148438 127.20312 C 80.413062 127.26823 80.668292 127.36583 80.914062 127.49609 L 80.914062 126.64648 C 80.674617 126.5488 80.414412 126.47659 80.130859 126.42773 C 79.847307 126.37888 79.544014 126.35352 79.222656 126.35352 z M 94.019531 126.35352 C 93.225584 126.35352 92.59444 126.61699 92.125 127.14453 C 91.658712 127.66881 91.425781 128.37987 91.425781 129.27539 C 91.425781 130.14161 91.670615 130.82793 92.162109 131.33594 C 92.656751 131.84394 93.327513 132.09766 94.171875 132.09766 C 94.508986 132.09766 94.840306 132.06189 95.167969 131.99023 C 95.495631 131.91857 95.815044 131.8145 96.126953 131.67773 L 96.126953 130.82812 C 95.818193 130.99748 95.506465 131.12432 95.191406 131.20898 C 94.879497 131.29365 94.556618 131.33594 94.222656 131.33594 C 93.646097 131.33594 93.195607 131.1759 92.871094 130.85352 C 92.549723 130.52787 92.369827 130.05427 92.332031 129.43555 L 96.330078 129.43555 L 96.330078 128.99609 C 96.330078 128.18198 96.122908 127.53859 95.707031 127.06641 C 95.294304 126.59097 94.731569 126.35352 94.019531 126.35352 z M 111.71875 126.35352 C 111.06973 126.35352 110.54541 126.60983 110.14844 127.12109 C 109.75146 127.63236 109.55469 128.31153 109.55469 129.1582 C 109.55469 130.00162 109.75146 130.67819 110.14844 131.18945 C 110.54541 131.70071 111.06973 131.95703 111.71875 131.95703 C 112.10942 131.95703 112.44421 131.87637 112.72461 131.7168 C 113.00502 131.55723 113.23448 131.31653 113.41406 130.99414 L 113.41406 131.43945 C 113.41406 132.06143 113.27379 132.52397 112.99023 132.83008 C 112.70668 133.13944 112.27924 133.29492 111.70898 133.29492 C 111.45063 133.29492 111.19616 133.26174 110.94727 133.19336 C 110.69837 133.12495 110.4466 133.01827 110.19141 132.875 L 110.19141 133.75 C 110.4466 133.84766 110.70952 133.91924 110.98047 133.96484 C 111.25142 134.0137 111.5401 134.03711 111.8457 134.03711 C 112.67116 134.03711 113.28347 133.80942 113.68359 133.35352 C 114.08372 132.90087 114.28516 132.20869 114.28516 131.27734 L 114.28516 126.48633 L 113.41406 126.48633 L 113.41406 127.31641 C 113.23448 126.99403 113.00501 126.75332 112.72461 126.59375 C 112.44421 126.43418 112.10942 126.35352 111.71875 126.35352 z M 123.31055 126.35352 C 123.02699 126.35352 122.73681 126.38606 122.4375 126.45117 C 122.13819 126.51303 121.82797 126.60736 121.50977 126.73438 L 121.50977 127.56445 C 121.77441 127.41468 122.05119 127.30343 122.33789 127.22852 C 122.6246 127.15361 122.91825 127.11523 123.2207 127.11523 C 123.69644 127.11523 124.06467 127.22908 124.32617 127.45703 C 124.59082 127.68173 124.72461 128.00245 124.72461 128.41602 L 124.72461 128.50391 L 123.50391 128.50391 C 122.71311 128.50391 122.11888 128.66004 121.71875 128.97266 C 121.32178 129.28527 121.12305 129.74977 121.12305 130.36523 C 121.12305 130.89278 121.2814 131.31303 121.59961 131.62891 C 121.92097 131.94152 122.35263 132.09766 122.89453 132.09766 C 123.32301 132.09766 123.68627 132.0196 123.98242 131.86328 C 124.27857 131.70372 124.52611 131.45911 124.72461 131.12695 L 124.72461 131.95703 L 125.59375 131.95703 L 125.59375 128.83594 C 125.59375 128.00229 125.40541 127.37906 125.02734 126.96875 C 124.64927 126.55844 124.07614 126.35352 123.31055 126.35352 z M 129.9375 126.35352 C 129.56888 126.35352 129.24254 126.43483 128.95898 126.59766 C 128.67857 126.76048 128.43449 127.00704 128.22656 127.33594 L 128.22656 126.48633 L 127.35156 126.48633 L 127.35156 131.95703 L 128.22656 131.95703 L 128.22656 128.86523 C 128.22656 128.33118 128.36186 127.90897 128.63281 127.59961 C 128.90376 127.29025 129.27275 127.13477 129.74219 127.13477 C 130.13284 127.13477 130.42574 127.26422 130.62109 127.52148 C 130.81644 127.77874 130.91406 128.16582 130.91406 128.68359 L 130.91406 131.95703 L 131.78516 131.95703 L 131.78516 128.6543 C 131.78516 127.8988 131.62832 127.32697 131.31641 126.93945 C 131.0045 126.54868 130.54557 126.35352 129.9375 126.35352 z M 135.80078 126.35352 C 134.97533 126.35352 134.32535 126.60983 133.84961 127.12109 C 133.37702 127.63236 133.14062 128.3343 133.14062 129.22656 C 133.14062 130.1058 133.37627 130.80449 133.8457 131.32227 C 134.31514 131.84004 134.94704 132.09766 135.74414 132.09766 C 136.03714 132.09766 136.31391 132.06837 136.57227 132.00977 C 136.83376 131.95113 137.08553 131.86331 137.32812 131.74609 L 137.32812 130.91602 C 137.08238 131.05603 136.83483 131.16272 136.58594 131.23438 C 136.34019 131.30278 136.09189 131.33594 135.83984 131.33594 C 135.27589 131.33594 134.8373 131.15314 134.52539 130.78516 C 134.21348 130.41392 134.05664 129.89414 134.05664 129.22656 C 134.05664 128.55899 134.21348 128.03985 134.52539 127.67188 C 134.8373 127.30064 135.27589 127.11523 135.83984 127.11523 C 136.09192 127.11523 136.34022 127.151 136.58594 127.22266 C 136.83484 127.29107 137.08238 127.39514 137.32812 127.53516 L 137.32812 126.69531 C 137.08868 126.58135 136.84114 126.49676 136.58594 126.44141 C 136.33074 126.3828 136.06858 126.35352 135.80078 126.35352 z M 143.38672 126.35352 C 143.10316 126.35352 142.81102 126.38606 142.51172 126.45117 C 142.21241 126.51303 141.90415 126.60736 141.58594 126.73438 L 141.58594 127.56445 C 141.85059 127.41468 142.1254 127.30343 142.41211 127.22852 C 142.69881 127.15361 142.99442 127.11523 143.29688 127.11523 C 143.77261 127.11523 144.14085 127.22908 144.40234 127.45703 C 144.667 127.68173 144.79883 128.00245 144.79883 128.41602 L 144.79883 128.50391 L 143.58008 128.50391 C 142.78928 128.50391 142.19309 128.66004 141.79297 128.97266 C 141.39599 129.28527 141.19922 129.74977 141.19922 130.36523 C 141.19922 130.89278 141.35757 131.31303 141.67578 131.62891 C 141.99714 131.94152 142.4288 132.09766 142.9707 132.09766 C 143.39918 132.09766 143.76048 132.0196 144.05664 131.86328 C 144.35278 131.70372 144.60033 131.45911 144.79883 131.12695 L 144.79883 131.95703 L 145.66992 131.95703 L 145.66992 128.83594 C 145.66992 128.00229 145.47964 127.37906 145.10156 126.96875 C 144.72349 126.55844 144.15231 126.35352 143.38672 126.35352 z M 159.20312 126.35352 C 158.40917 126.35352 157.77803 126.61699 157.30859 127.14453 C 156.84231 127.66881 156.60938 128.37987 156.60938 129.27539 C 156.60938 130.14161 156.85616 130.82793 157.34766 131.33594 C 157.8423 131.84394 158.51111 132.09766 159.35547 132.09766 C 159.69258 132.09766 160.0239 132.06189 160.35156 131.99023 C 160.67922 131.91857 161.00059 131.8145 161.3125 131.67773 L 161.3125 130.82812 C 161.00374 130.99748 160.69201 131.12432 160.37695 131.20898 C 160.06504 131.29365 159.74216 131.33594 159.4082 131.33594 C 158.83164 131.33594 158.38115 131.1759 158.05664 130.85352 C 157.73527 130.52787 157.55537 130.05427 157.51758 129.43555 L 161.51562 129.43555 L 161.51562 128.99609 C 161.51562 128.18198 161.3065 127.53859 160.89062 127.06641 C 160.4779 126.59097 159.91516 126.35352 159.20312 126.35352 z M 165.56445 126.35352 C 165.14542 126.35352 164.79105 126.43483 164.49805 126.59766 C 164.20503 126.75722 163.96593 127.00378 163.7832 127.33594 L 163.7832 126.48633 L 162.91016 126.48633 L 162.91016 131.95703 L 163.7832 131.95703 L 163.7832 129.07422 C 163.7832 128.45549 163.91428 127.98124 164.17578 127.65234 C 164.44043 127.32019 164.81905 127.1543 165.31055 127.1543 C 165.44918 127.1543 165.57409 127.16991 165.6875 127.19922 C 165.80406 127.22527 165.9121 127.26756 166.00977 127.32617 L 166.00391 126.40234 C 165.91569 126.38597 165.83614 126.37544 165.76367 126.36914 C 165.69121 126.35931 165.6243 126.35352 165.56445 126.35352 z M 168.92578 126.35352 C 168.13183 126.35352 167.49873 126.61699 167.0293 127.14453 C 166.56301 127.66881 166.33008 128.37987 166.33008 129.27539 C 166.33008 130.14161 166.57686 130.82793 167.06836 131.33594 C 167.563 131.84394 168.23181 132.09766 169.07617 132.09766 C 169.41328 132.09766 169.74655 132.06189 170.07422 131.99023 C 170.40188 131.91857 170.72129 131.8145 171.0332 131.67773 L 171.0332 130.82812 C 170.72444 130.99748 170.41272 131.12432 170.09766 131.20898 C 169.78575 131.29365 169.46287 131.33594 169.12891 131.33594 C 168.55235 131.33594 168.10186 131.1759 167.77734 130.85352 C 167.456 130.52787 167.2761 130.05427 167.23828 129.43555 L 171.23633 129.43555 L 171.23633 128.99609 C 171.23633 128.18198 171.02916 127.53859 170.61328 127.06641 C 170.20055 126.59097 169.63782 126.35352 168.92578 126.35352 z M 174.52148 126.35352 C 174.23793 126.35352 173.94579 126.38606 173.64648 126.45117 C 173.34718 126.51303 173.03891 126.60736 172.7207 126.73438 L 172.7207 127.56445 C 172.98535 127.41468 173.26017 127.30343 173.54688 127.22852 C 173.83358 127.15361 174.12919 127.11523 174.43164 127.11523 C 174.90738 127.11523 175.27561 127.22908 175.53711 127.45703 C 175.80176 127.68173 175.93359 128.00245 175.93359 128.41602 L 175.93359 128.50391 L 174.71484 128.50391 C 173.92405 128.50391 173.32786 128.66004 172.92773 128.97266 C 172.53076 129.28527 172.33203 129.74977 172.33203 130.36523 C 172.33203 130.89278 172.49234 131.31303 172.81055 131.62891 C 173.13191 131.94152 173.56357 132.09766 174.10547 132.09766 C 174.53395 132.09766 174.89525 132.0196 175.19141 131.86328 C 175.48755 131.70372 175.73509 131.45911 175.93359 131.12695 L 175.93359 131.95703 L 176.80273 131.95703 L 176.80273 128.83594 C 176.80273 128.00229 176.6144 127.37906 176.23633 126.96875 C 175.85826 126.55844 175.28708 126.35352 174.52148 126.35352 z M 44.701172 126.48633 L 44.701172 131.95703 L 45.570312 131.95703 L 45.570312 126.48633 L 44.701172 126.48633 z M 107.24219 126.48633 L 107.24219 131.95703 L 108.11328 131.95703 L 108.11328 126.48633 L 107.24219 126.48633 z M 116.07617 126.48633 L 116.07617 131.95703 L 116.94531 131.95703 L 116.94531 126.48633 L 116.07617 126.48633 z M 138.83984 126.48633 L 138.83984 131.95703 L 139.70898 131.95703 L 139.70898 126.48633 L 138.83984 126.48633 z M 87.658203 127.10547 C 88.118192 127.10547 88.481444 127.29413 88.746094 127.67188 C 89.010741 128.04636 89.142578 128.56551 89.142578 129.22656 C 89.142578 129.88762 89.010741 130.40741 88.746094 130.78516 C 88.481444 131.15965 88.118192 131.3457 87.658203 131.3457 C 87.198217 131.3457 86.836916 131.15965 86.572266 130.78516 C 86.310768 130.40741 86.179687 129.88762 86.179688 129.22656 C 86.179687 128.56551 86.310768 128.04636 86.572266 127.67188 C 86.836916 127.29413 87.198217 127.10547 87.658203 127.10547 z M 111.93164 127.10547 C 112.40108 127.10547 112.76509 127.28437 113.02344 127.64258 C 113.28494 128.00079 113.41406 128.50691 113.41406 129.1582 C 113.41406 129.80624 113.28494 130.30976 113.02344 130.66797 C 112.76509 131.02618 112.40108 131.20508 111.93164 131.20508 C 111.46535 131.20508 111.10134 131.02618 110.83984 130.66797 C 110.5815 130.30976 110.45117 129.80624 110.45117 129.1582 C 110.45117 128.50691 110.5815 128.00079 110.83984 127.64258 C 111.10134 127.28437 111.46535 127.10547 111.93164 127.10547 z M 58.453125 127.11523 C 58.881605 127.11523 59.224074 127.26161 59.482422 127.55469 C 59.743925 127.84777 59.878466 128.2407 59.884766 128.73242 L 56.785156 128.73828 C 56.829266 128.22376 56.995302 127.82433 57.285156 127.54102 C 57.578163 127.2577 57.967934 127.11523 58.453125 127.11523 z M 94.029297 127.11523 C 94.457777 127.11523 94.800245 127.26161 95.058594 127.55469 C 95.320094 127.84777 95.454638 128.2407 95.460938 128.73242 L 92.361328 128.73828 C 92.405435 128.22376 92.571471 127.82433 92.861328 127.54102 C 93.154332 127.2577 93.544104 127.11523 94.029297 127.11523 z M 159.21289 127.11523 C 159.64137 127.11523 159.98579 127.26161 160.24414 127.55469 C 160.50564 127.84777 160.63823 128.2407 160.64453 128.73242 L 157.54492 128.73828 C 157.58903 128.22376 157.75702 127.82433 158.04688 127.54102 C 158.33988 127.2577 158.7277 127.11523 159.21289 127.11523 z M 168.93555 127.11523 C 169.36403 127.11523 169.70649 127.26161 169.96484 127.55469 C 170.22634 127.84777 170.36089 128.2407 170.36719 128.73242 L 167.26562 128.73828 C 167.30973 128.22376 167.47772 127.82433 167.76758 127.54102 C 168.06058 127.2577 168.45036 127.11523 168.93555 127.11523 z M 74.015625 129.20703 L 74.880859 129.20703 L 74.880859 129.40625 C 74.880859 129.99241 74.734405 130.4634 74.441406 130.81836 C 74.151554 131.17005 73.765244 131.3457 73.283203 131.3457 C 72.933496 131.3457 72.655972 131.25398 72.451172 131.06836 C 72.249521 130.87949 72.148438 130.62382 72.148438 130.30469 C 72.148438 129.90414 72.283736 129.62115 72.554688 129.45508 C 72.825637 129.28901 73.313041 129.20703 74.015625 129.20703 z M 123.85938 129.20703 L 124.72461 129.20703 L 124.72461 129.40625 C 124.72461 129.99241 124.57816 130.46341 124.28516 130.81836 C 123.9953 131.17005 123.60899 131.3457 123.12695 131.3457 C 122.77725 131.3457 122.49972 131.25398 122.29492 131.06836 C 122.09327 130.87949 121.99219 130.62382 121.99219 130.30469 C 121.99219 129.90414 122.12749 129.62115 122.39844 129.45508 C 122.66939 129.28901 123.15679 129.20703 123.85938 129.20703 z M 143.93555 129.20703 L 144.79883 129.20703 L 144.79883 129.40625 C 144.79883 129.99241 144.65238 130.46341 144.35938 130.81836 C 144.06952 131.17005 143.68517 131.3457 143.20312 131.3457 C 142.85342 131.3457 142.57589 131.25398 142.37109 131.06836 C 142.16944 130.87949 142.06836 130.62382 142.06836 130.30469 C 142.06836 129.90414 142.20366 129.62115 142.47461 129.45508 C 142.74556 129.28901 143.23297 129.20703 143.93555 129.20703 z M 175.06836 129.20703 L 175.93359 129.20703 L 175.93359 129.40625 C 175.93359 129.99241 175.78715 130.46341 175.49414 130.81836 C 175.20429 131.17005 174.81798 131.3457 174.33594 131.3457 C 173.98624 131.3457 173.70871 131.25398 173.50391 131.06836 C 173.30226 130.87949 173.20312 130.62382 173.20312 130.30469 C 173.20313 129.90414 173.33842 129.62115 173.60938 129.45508 C 173.88033 129.28901 174.36578 129.20703 175.06836 129.20703 z "
     transform="scale(0.26458333)"
     id="path985" />
  <g
     transform="scale(0.98361374,1.0166592)"
     style="font-style:normal;font-weight:normal;font-size:8.03821659px;line-height:1.25;font-family:sans-serif;letter-spacing:0px;word-spacing:0px;fill:#000000;fill-opacity:1;stroke:none;stroke-width:0.20095518"
     id="text135-0" />
  <g
     transform="matrix(0.19766262,0,0,0.20430329,-13.756451,-10.583914)"
     style="font-style:normal;font-weight:normal;font-size:40px;line-height:1.25;font-family:sans-serif;letter-spacing:0px;word-spacing:0px;fill:#000000;fill-opacity:1;stroke:none"
     id="flowRoot157-4" />
  <g
     transform="matrix(0.09308456,0,0,0.09621183,-147.87922,0.19508594)"
     style="font-style:normal;font-weight:normal;font-size:40px;line-height:1.25;font-family:sans-serif;letter-spacing:0px;word-spacing:0px;fill:#000000;fill-opacity:1;stroke:none"
     id="flowRoot149-4" />
  <g
     transform="matrix(0.09308456,0,0,0.09621183,-147.87922,0.19508594)"
     style="font-style:normal;font-weight:normal;font-size:40px;line-height:1.25;font-family:sans-serif;letter-spacing:0px;word-spacing:0px;fill:#000000;fill-opacity:1;stroke:none"
     id="flowRoot194-4" />
  <g
     transform="matrix(0.09308456,0,0,0.09621183,-147.87922,0.19508594)"
     style="font-style:normal;font-weight:normal;font-size:40px;line-height:1.25;font-family:sans-serif;letter-spacing:0px;word-spacing:0px;fill:#000000;fill-opacity:1;stroke:none"
     id="flowRoot202-8" />
  <g
     transform="matrix(0.09308456,0,0,0.09621183,-147.87922,0.19508594)"
     style="font-style:normal;font-weight:normal;font-size:40px;line-height:1.25;font-family:sans-serif;letter-spacing:0px;word-spacing:0px;fill:#000000;fill-opacity:1;stroke:none"
     id="flowRoot210-0" />
</svg>
